<svg id="Capa_1" enable-background="new 0 0 512 512" height="512" viewBox="0 0 512 512" width="512" xmlns="http://www.w3.org/2000/svg"><g><g><path d="m234.077 66.512c-53.548-53.548-140.367-53.548-193.916 0-53.548 53.548-53.548 140.367 0 193.916l21.923 21.923 193.916 193.916 14.226-215.261-14.226-172.571z" fill="#e06379"/><g><path d="m471.839 66.512c-53.549-53.549-140.368-53.549-193.916 0l-21.923 21.923v387.832l193.916-193.916 21.923-21.923c53.548-53.548 53.548-140.368 0-193.916z" fill="#c63c50"/></g></g><g><g><path d="m81.548 126.336h-27.347c-29.934 0-54.201 24.267-54.201 54.201v180.394l20.044 28.834v30.914h61.504l6.586-37.087-6.586-71.587z" fill="#f6dccd"/><path d="m147.114 234.215c-19.643 0-35.567 15.924-35.567 35.567v27.2h-30v123.697h66.797v-30.914l15.83-27.659v-127.891z" fill="#f1cbbc"/></g><path d="m0 412.839h88.134v72.81h-88.134z" fill="#6b66d0"/><path d="m81.548 412.839h82.627v72.81h-82.627z" fill="#524798"/></g><g><g><path d="m430.452 126.336h27.346c29.935 0 54.201 24.267 54.201 54.202v180.394l-20.044 28.834v30.914h-61.504l-6.586-37.087 6.586-71.587v-185.67z" fill="#f1cbbc"/><path d="m364.885 234.215c19.643 0 35.567 15.924 35.567 35.567v27.2h30v123.697h-66.797v-30.914l-15.83-27.659v-127.891z" fill="#f6dccd"/></g><path d="m423.866 412.839h88.134v72.81h-88.134z" fill="#524798"/><path d="m347.826 412.839h82.627v72.81h-82.627z" fill="#6b66d0"/></g></g></svg>