<svg id="Capa_1" enable-background="new 0 0 512 512" height="512" viewBox="0 0 512 512" width="512" xmlns="http://www.w3.org/2000/svg"><g><path d="m492.241 166.773-35.325 35.325c-9.993-15.988-23.725-30.864-40.888-44.03-42.176-32.358-98.867-50.17-159.637-50.17s-117.472 17.812-159.647 50.17c-17.585 13.485-31.575 28.794-41.64 45.235-19.017-19.017-35.778-35.778-35.778-35.778 42.104-67.806 132.234-114.679 236.674-114.679 104.059 0 193.942 46.523 236.241 113.927z" fill="#fb3a82"/><path d="m492.241 166.773-35.325 35.325c-4.677-7.489-10.189-14.742-16.483-21.685v-36.489c0-9.89 2.565-19.192 7.067-27.269 18.018 14.794 33.162 31.668 44.741 50.118z" fill="#fb1466"/><path d="m461.645 197.37-36.118 36.118c-7.325-14.598-19.223-28.453-35.171-40.692-34.851-26.733-82.425-41.444-133.965-41.444s-99.124 14.721-133.965 41.444c-16.442 12.62-28.557 26.95-35.799 42.031-16.328-16.318-34.511-34.501-36.18-36.17 10.199-19.573 25.806-37.746 46.296-53.466 42.176-32.348 98.877-50.159 159.647-50.159s117.461 17.812 159.637 50.159c20.049 15.381 35.409 33.1 45.618 52.179z" fill="#fca863"/><path d="m461.645 197.37-36.118 36.118c-7.191-14.33-18.79-27.959-34.315-40.033 3.142-.464 6.346-.701 9.581-.701 9.333 0 18.42 2.009 26.723 5.821l12.919-12.929v-18.1c8.549 9.426 15.647 19.419 21.21 29.824z" fill="#fc9744"/><path d="m429.761 229.254-24.601 24.601h-15.927c-4.018-9.818-12.496-20.006-24.56-29.247-27.516-21.108-65.973-32.739-108.282-32.739s-80.766 11.631-108.293 32.739c-12.063 9.241-20.531 19.429-24.549 29.247h-17.894l-23.117-23.107c6.212-18.749 19.831-36.695 39.889-52.086 34.841-26.723 82.425-41.444 133.965-41.444s99.114 14.711 133.965 41.444c19.521 14.979 32.975 32.389 39.404 50.592z" fill="#fee265"/><path d="m429.761 229.254-24.601 24.601h-15.927c-4.018-9.818-12.496-20.006-24.56-29.247-4.183-3.214-8.623-6.202-13.289-8.963l4.141-4.141c12.084-12.095 28.165-18.749 45.266-18.749 1.916 0 3.822.082 5.717.258 10.932 11.331 18.792 23.601 23.253 36.241z" fill="#f8c52d"/><path d="m391.912 253.855h-60.132c-19.677-12.321-46.059-19.027-75.389-19.027-29.329 0-55.712 6.706-75.399 19.027h-60.121c0-13.238 9.921-28.443 27.228-41.712 27.526-21.119 65.983-32.749 108.293-32.749s80.766 11.631 108.282 32.739c17.307 13.278 27.238 28.484 27.238 41.722z" fill="#a3e440"/><path d="m391.912 253.855h-60.132c-3.791-2.38-7.84-4.553-12.115-6.49l35.861-35.861c1.174-1.175 2.39-2.297 3.637-3.369 1.885 1.288 3.719 2.627 5.511 3.997 17.307 13.279 27.238 28.485 27.238 41.723z" fill="#99d53b"/><path d="m347.822 302.68c-1.765-2.136-4.585-5.005-8.818-8.252-20.198-15.492-49.538-30.206-82.616-30.206-33.077 0-62.418 14.714-82.619 30.209-4.23 3.245-7.05 6.112-8.814 8.247v-48.821c1.765-2.135 4.584-5.002 8.814-8.247 20.201-15.495 49.542-24.028 82.619-24.028s62.417 8.533 82.616 24.025c4.233 3.246 7.053 6.116 8.818 8.252z" fill="#31a7fb"/><path d="m347.82 253.855v48.82c-1.762-2.132-4.584-4.996-8.818-8.251-11.651-8.932-26.342-17.616-43.041-23.354l32.461-32.461c3.75 2.133 7.294 4.471 10.58 6.995 4.234 3.255 7.056 6.118 8.818 8.251z" fill="#1c96f9"/><path d="m496.703 108.259c-19.696 0-35.662 15.966-35.662 35.662v48.129c0 1.366-.543 2.676-1.509 3.642l-25.905 25.905c-1.82 1.82-4.695 2.002-6.751.454-17.015-12.806-41.293-11.471-56.784 4.02l-65.788 65.788c-9.403 9.404-14.686 22.157-14.686 35.456v121.533c0 6.06 5.206 10.811 11.241 10.259l81.209-7.432c5.304-.485 9.363-4.933 9.363-10.259v-93.074c0-7.775 3.088-15.231 8.586-20.728l106.761-106.761c3.344-3.344 5.223-7.879 5.223-12.608v-84.69c-.001-8.447-6.85-15.296-15.298-15.296z" fill="#fdd1a7"/><path d="m512 123.614v84.632c0 4.729-1.875 9.261-5.223 12.599l-106.758 106.768c-5.501 5.491-8.592 12.949-8.592 20.727v93.072c0 5.325-4.058 9.772-9.361 10.259l-24.254 2.225v-105.556c0-7.778 3.091-15.236 8.581-20.727l106.775-106.775c3.34-3.34 5.216-7.869 5.216-12.592v-84.691c0-3.152-.958-6.088-2.596-8.519 5.824-4.23 12.986-6.738 20.722-6.778 8.519-.046 15.49 6.838 15.49 15.356z" fill="#ffbc8a"/><path d="m15.297 108.259c19.696 0 35.662 15.966 35.662 35.662v48.129c0 1.366.543 2.676 1.509 3.642l25.905 25.905c1.82 1.82 4.695 2.002 6.751.454 17.015-12.806 41.293-11.471 56.784 4.02l65.788 65.788c9.403 9.404 14.686 22.157 14.686 35.456v121.533c0 6.06-5.206 10.811-11.241 10.259l-81.209-7.432c-5.304-.485-9.363-4.933-9.363-10.259v-93.074c0-7.775-3.088-15.231-8.586-20.728l-106.76-106.76c-3.344-3.344-5.223-7.879-5.223-12.608v-84.69c0-8.448 6.849-15.297 15.297-15.297z" fill="#fdd1a7"/><path d="m222.385 327.326v121.526c0 6.061-5.206 10.812-11.242 10.259l-28.791-2.638v-129.154c0-13.3-5.285-26.053-14.68-35.459l-65.787-65.787c-3.235-3.235-6.851-5.851-10.704-7.84 16.359-8.499 36.994-5.893 50.726 7.84l65.787 65.787c9.407 9.406 14.691 22.164 14.691 35.466z" fill="#ffbc8a"/><g><path d="m151.756 318.303c-1.525 1.72-3.647 2.586-5.769 2.586-1.834 0-3.667-.639-5.141-1.958l-75.811-67.559c-4.337-4.347-7.057-10.426-7.057-16.565 0-6.14 2.4-11.919 6.737-16.256 1.741-1.741 3.616-3.42 5.604-5.007l8.056 8.056c1.432 1.432 3.523 1.844 5.357 1.195-2.977 2.06-5.718 4.306-8.087 6.676-1.432 1.432-2.215 3.327-2.215 5.336 0 1.957.742 3.791 2.081 5.202l75.615 67.384c3.185 2.843 3.463 7.726.63 10.91z" fill="#ffbc8a"/></g><g><path d="m453.826 234.807c0 6.14-2.72 12.218-7.057 16.565l-75.811 67.559c-1.473 1.319-3.307 1.958-5.13 1.958-2.132 0-4.244-.865-5.769-2.586-2.843-3.183-2.565-8.066.618-10.91l75.615-67.384c1.339-1.411 2.081-3.245 2.081-5.202 0-2.009-.783-3.904-2.215-5.336-2.442-2.442-5.285-4.77-8.375-6.882 1.937.927 4.275.577 5.841-.989l7.974-7.973c1.947 1.576 3.791 3.224 5.491 4.924 4.347 4.336 6.737 10.116 6.737 16.256z" fill="#ffbc8a"/></g></g></svg>